<svg xmlns="http://www.w3.org/2000/svg"
aria-label="Github" role="img"
viewBox="0 0 512 512"><path
d="m0 0H512V512H0"
fill="#fff"/><path d="M256,67.1289C153.6,67.1289,70.5422,150.1867,70.5422,252.5867c0,81.92,53.4756,151.3244,126.2933,176.3556c9.1022,1.1378,12.5156,-4.5511,12.5156,-9.1022c0,-4.5511,0,-15.9289,0,-31.8578c-51.2,11.3778,-62.5778,-25.0311,-62.5778,-25.0311c-7.9644,-21.6178,-20.48,-27.3067,-20.48,-27.3067c-17.0667,-11.3778,1.1378,-11.3778,1.1378,-11.3778c18.2044,1.1378,28.4444,19.3422,28.4444,19.3422c17.0667,28.4444,43.2356,20.48,53.4756,15.9289c1.1378,-12.5156,6.8267,-20.48,11.3778,-25.0311c-40.96,-4.5511,-84.1956,-20.48,-84.1956,-92.16c0,-20.48,6.8267,-36.4089,19.3422,-50.0622c-2.2756,-4.5511,-7.9644,-23.8933,2.2756,-48.9244c0,0,15.9289,-4.5511,51.2,19.3422c14.7911,-4.5511,30.72,-5.6889,46.6489,-5.6889c15.9289,0,31.8578,2.2756,46.6489,5.6889c35.2711,-23.8933,51.2,-19.3422,51.2,-19.3422c10.24,25.0311,3.4133,44.3733,2.2756,48.9244c11.3778,12.5156,19.3422,29.5822,19.3422,50.0622c0,71.68,-43.2356,86.4711,-84.1956,91.0222c6.8267,5.6889,12.5156,17.0667,12.5156,34.1333c0,25.0311,0,44.3733,0,51.2c0,4.5511,3.4133,10.24,12.5156,9.1022c73.9556,-25.0311,126.2933,-94.4356,126.2933,-176.3556C441.4578,150.1867,358.4,67.1289,256,67.1289z"/></svg>