<svg xmlns="http://www.w3.org/2000/svg"
aria-label="Gmail" role="img" viewBox="0 0 512 512">
<path d="m0 0H512V512H0" fill="#fff"/>
<g transform="translate(51.2 51.2) scale(2.1333)">
<path fill="#c5221f" d="M8,46v16l18.35,17.76L48,92l4-26.93L48,40l-11.2-8.4C24.93,22.7,8,31.17,8,46"/>
<path fill="#fbbc04" d="M144,40l-4,25.4l4,26.6l19.65-9.73L184,62V46c0-14.83-16.93-23.3-28.8-14.4L144,40z"/>
<path fill="#4285f4" d="M20,160h28V92L8,62v86C8,154.63,13.37,160,20,160"/>
<path fill="#34a853" d="M144,160h28c6.63,0,12-5.37,12-12V62l-40,30V160z"/>
<polygon fill="#ea4335" points="96,76 48,40 48,92 96,128 144,92 144,40"/>
</g>
</svg>