<svg xmlns="http://www.w3.org/2000/svg"
aria-label="Netease Mail" role="img" viewBox="0 0 512 512">
<path d="m0 0H512V512H0" fill="#fc1e1e"/>
<path transform="scale(17.0667)" fill="#fff" d="M21.1325 9.8379L19.4009 22.1391L19.367 22.3572C19.2986 22.7533 19.2244 22.9211 19.114 23.0884C18.9853 23.2837 18.8138 23.4327 18.6025 23.533C18.3912 23.6333 18.1862 23.6848 17.6224 23.6848H16.3522L18.0666 11.3857C18.1445 10.8268 18.2239 10.6307 18.3526 10.4352C18.4813 10.2397 18.6529 10.0904 18.8643 9.98994C19.0757 9.88949 19.2808 9.8379 19.8451 9.8379H21.1325ZM9.11738 9.8379L7.88726 18.5911L7.85343 18.8092C7.78507 19.2054 7.71088 19.3732 7.60053 19.5406C7.4718 19.7359 7.30025 19.885 7.08896 19.9853C6.89276 20.0784 6.70199 20.1295 6.22425 20.1363L4.83886 20.1371L6.06897 11.3839C6.14745 10.8255 6.22697 10.6297 6.3557 10.4344C6.48444 10.2391 6.65599 10.09 6.86728 9.9897L6.95851 9.94971C7.14447 9.87573 7.36413 9.8379 7.84746 9.8379H9.11738ZM12.337 6.29038H13.6244L11.8928 18.5916C11.8142 19.1499 11.7347 19.3457 11.606 19.5409C11.4772 19.7361 11.3057 19.8852 11.0944 19.9855C10.8831 20.0858 10.6782 20.1372 10.1143 20.1372H8.84412L10.5585 7.83814C10.6364 7.27927 10.7158 7.08322 10.8445 6.88772C10.9732 6.69222 11.1448 6.54288 11.3562 6.44242C11.5676 6.34197 11.7727 6.29038 12.337 6.29038ZM17.1279 9.8379L15.8977 18.5911L15.8639 18.8092C15.7955 19.2054 15.7214 19.3732 15.611 19.5406C15.4823 19.7359 15.3107 19.885 15.0994 19.9853C14.9032 20.0784 14.7125 20.1295 14.2347 20.1363L12.8493 20.1371L14.0795 11.3839C14.1579 10.8255 14.2374 10.6297 14.3662 10.4344C14.4949 10.2391 14.6665 10.09 14.8778 9.9897L14.969 9.94971C15.1549 9.87573 15.3746 9.8379 15.8579 9.8379H17.1279ZM25.1383 9.8379L23.9082 18.5911L23.8744 18.8092C23.806 19.2054 23.7318 19.3732 23.6215 19.5406C23.4928 19.7359 23.3212 19.885 23.1099 19.9853C22.9137 20.0784 22.7229 20.1295 22.2452 20.1363L20.8598 20.1371L22.0899 11.3839C22.1684 10.8255 22.2479 10.6297 22.3767 10.4344C22.5054 10.2391 22.677 10.09 22.8882 9.9897L22.9795 9.94971C23.1654 9.87573 23.3851 9.8379 23.8684 9.8379H25.1383Z"/>
</svg>