<svg xmlns="http://www.w3.org/2000/svg"
aria-label="YouTube" role="img" viewBox="0 0 512 512">
<path d="m0 0H512V512H0" fill="#fff"/>
<g transform="translate(51.2 51.2) scale(17.0667)"><path fill="#ff0033" d="M21.58,7.19c-0.23-0.86-0.91-1.54-1.77-1.77C18.25,5,12,5,12,5S5.75,5,4.19,5.42 C3.33,5.65,2.65,6.33,2.42,7.19C2,8.75,2,12,2,12s0,3.25,0.42,4.81c0.23,0.86,0.91,1.54,1.77,1.77C5.75,19,12,19,12,19 s6.25,0,7.81-0.42c0.86-0.23,1.54-0.91,1.77-1.77C22,15.25,22,12,22,12S22,8.75,21.58,7.19z"/><polygon fill="#fff" points="10,15 15,12 10,9"/></g>
</svg>